<?xml version="1.0" standalone="no"?>
<!DOCTYPE svg PUBLIC "-//W3C//DTD SVG 20010904//EN"
 "http://www.w3.org/TR/2001/REC-SVG-20010904/DTD/svg10.dtd">
<svg version="1.0" xmlns="http://www.w3.org/2000/svg"
 width="688.000000pt" height="688.000000pt" viewBox="0 0 688.000000 688.000000"
 preserveAspectRatio="xMidYMid meet">
<metadata>
Created by potrace 1.14, written by Peter Selinger 2001-2017
</metadata>
<g transform="translate(0.000000,688.000000) scale(0.100000,-0.100000)"
fill="#000000" stroke="none">
<path d="M4159 6285 c-2 -2 -49 -6 -103 -10 -55 -4 -107 -8 -115 -10 -9 -1
-50 -6 -91 -10 -41 -4 -83 -9 -94 -11 -10 -2 -44 -6 -75 -10 -31 -3 -59 -8
-62 -10 -3 -1 -28 -6 -55 -10 -27 -3 -51 -8 -54 -9 -3 -2 -26 -6 -50 -10 -25
-3 -74 -13 -110 -21 -36 -9 -74 -17 -85 -20 -34 -7 -57 -12 -140 -35 -44 -11
-84 -22 -90 -24 -32 -7 -388 -126 -420 -140 -16 -7 -55 -23 -85 -35 -109 -43
-158 -66 -350 -163 -107 -54 -224 -116 -259 -137 -34 -22 -65 -40 -67 -40 -6
0 -278 -182 -354 -236 -88 -63 -329 -258 -415 -335 -155 -140 -368 -364 -450
-474 -16 -22 -33 -42 -37 -45 -4 -3 -18 -21 -31 -40 -13 -19 -44 -64 -68 -100
-232 -337 -399 -738 -455 -1095 -3 -16 -9 -55 -14 -85 -5 -30 -13 -84 -17
-120 -10 -82 -10 -568 0 -635 7 -47 21 -129 33 -200 10 -56 45 -180 70 -250
14 -38 27 -74 28 -80 18 -66 180 -370 216 -405 3 -3 21 -27 40 -55 50 -72 72
-98 195 -221 99 -99 259 -230 325 -264 14 -7 27 -16 30 -20 6 -7 63 -38 185
-98 96 -48 315 -132 344 -132 9 0 22 -5 29 -12 7 -7 12 -9 12 -6 0 4 21 1 48
-7 26 -7 65 -16 87 -21 22 -4 45 -8 50 -9 29 -7 110 -19 210 -32 120 -16 661
-7 735 12 8 2 39 7 69 10 30 4 63 9 75 11 23 5 54 10 101 18 241 37 759 191
1068 317 67 27 127 51 132 53 96 29 465 216 658 333 95 58 98 57 61 -25 -9
-18 -17 -40 -19 -50 -2 -9 -11 -39 -20 -67 -9 -27 -18 -61 -21 -75 -3 -14 -9
-41 -13 -61 -26 -115 38 -199 149 -194 27 1 56 7 64 14 17 14 43 67 50 101 6
30 43 147 56 175 5 11 25 61 45 110 41 101 197 418 238 482 15 24 27 44 27 46
0 3 32 57 70 121 39 65 70 119 70 121 0 1 18 32 39 66 22 35 52 87 67 114 14
28 32 57 39 65 7 8 16 25 19 38 4 12 12 22 17 22 5 0 9 5 9 10 0 6 11 27 23
48 13 20 35 57 49 82 26 48 83 145 98 170 36 58 160 283 160 291 0 5 5 9 11 9
5 0 8 4 4 9 -3 5 -1 12 4 15 5 3 23 34 41 68 18 35 48 92 68 126 l35 64 96 -6
c93 -5 230 -21 261 -31 16 -5 54 -11 140 -21 77 -9 81 -9 117 -2 61 14 91 103
61 184 -20 57 -61 72 -295 108 -44 7 -154 19 -198 22 -22 1 -47 2 -57 3 -9 1
-20 13 -26 29 -30 84 -138 125 -213 80 -11 -7 -31 -34 -44 -59 l-24 -46 -178
-2 c-98 -1 -209 -3 -248 -6 -163 -10 -252 -16 -285 -20 -19 -3 -60 -7 -90 -10
-66 -7 -118 -13 -145 -19 -11 -2 -42 -7 -68 -10 -53 -7 -303 -54 -327 -61 -8
-2 -28 -7 -45 -10 -82 -14 -264 -58 -373 -91 -48 -14 -94 -27 -102 -29 -17 -4
-207 -72 -230 -82 -8 -3 -20 -7 -26 -8 -24 -6 -257 -126 -299 -155 -25 -17
-46 -39 -46 -48 -1 -9 -3 -32 -5 -50 -5 -46 19 -98 57 -121 58 -35 125 -23
429 79 114 38 273 87 310 95 8 2 15 4 15 5 0 1 7 3 15 5 14 3 68 17 190 51 30
9 62 17 70 19 21 5 192 46 210 51 30 7 155 36 180 40 14 3 41 9 60 14 19 5 53
12 75 15 22 4 56 10 75 15 19 5 53 12 75 15 22 4 49 9 60 11 30 5 245 34 290
39 22 3 80 7 128 10 l88 4 -39 -72 c-21 -40 -50 -92 -64 -117 -23 -40 -57
-101 -161 -290 -17 -30 -35 -64 -41 -75 -6 -11 -13 -22 -16 -25 -3 -3 -10 -14
-16 -25 -48 -87 -91 -163 -206 -357 -72 -123 -136 -232 -142 -243 -57 -102
-105 -170 -144 -202 -26 -20 -49 -40 -52 -43 -12 -14 -132 -102 -215 -157
-266 -178 -577 -338 -925 -478 -254 -102 -623 -216 -810 -250 -47 -9 -65 -13
-65 -15 0 -1 -9 -3 -20 -5 -53 -9 -83 -14 -120 -19 -23 -4 -50 -8 -61 -10 -11
-2 -44 -7 -74 -11 -30 -3 -68 -8 -85 -11 -59 -9 -471 -11 -530 -3 -33 5 -85
11 -115 15 -30 3 -57 7 -60 9 -3 2 -25 6 -50 10 -61 9 -294 70 -360 94 -30 11
-74 27 -97 35 -37 14 -198 92 -263 127 -287 159 -537 425 -683 729 -45 92 -91
221 -103 284 -8 42 -9 48 -16 71 -4 11 -9 40 -12 65 -3 25 -8 55 -10 68 -26
131 -21 544 9 725 3 15 7 39 10 55 8 50 15 87 20 112 3 14 8 36 11 50 45 230
179 552 334 801 66 105 220 319 230 319 4 0 11 9 16 19 26 55 319 353 493 501
36 30 72 62 82 70 61 55 296 227 414 305 148 97 346 211 517 296 76 38 140 69
143 69 3 0 35 14 72 31 108 49 131 59 138 59 4 0 21 6 38 14 32 14 144 56 162
61 6 1 17 5 25 8 73 28 360 107 439 122 14 3 37 7 51 11 31 7 221 41 276 49
154 22 355 35 564 35 131 0 169 -3 275 -16 28 -3 64 -7 80 -9 17 -1 32 -4 35
-5 3 -1 8 -2 12 -1 21 3 274 -57 353 -84 403 -136 672 -366 745 -636 21 -78
24 -102 24 -209 1 -105 -2 -130 -24 -204 -12 -40 -76 -167 -89 -176 -4 -3 -14
-15 -23 -28 -23 -35 -86 -99 -177 -182 -100 -91 -125 -128 -116 -170 14 -65
109 -139 181 -141 73 -3 143 40 262 161 150 150 222 270 267 443 19 76 22 107
19 235 -3 165 -4 168 -33 278 -25 91 -108 267 -146 309 -5 6 -23 29 -40 50
-74 95 -227 230 -335 296 -30 19 -57 37 -60 40 -6 7 -177 90 -235 114 -68 28
-150 54 -285 89 -93 24 -124 30 -205 42 -22 3 -51 8 -65 11 -27 7 -616 14
-621 8z"/>
</g>
</svg>
