<svg xmlns="http://www.w3.org/2000/svg" viewBox="0 0 615.401 74.111">
  <g fill-rule="evenodd" stroke-linecap="round" stroke-width=".945" style="stroke-width:.25mm">
    <path d="m64.001 55.109 3-5.1q1.185-1.976 2.859-4.929a407.792 407.792 0 0 0 .041-.071 488.884 488.884 0 0 0 1.345-2.391q1.18-2.109 2.555-4.609a27.609 27.609 0 0 0-2.321.106q-1.197.102-2.567.3a65.302 65.302 0 0 0-2.912.494 122.818 122.818 0 0 0-6.963 1.552 142.626 142.626 0 0 0-2.837.748q-3.1.8-6.15 1.85a63.825 63.825 0 0 1-1.065.357q-1.585.514-2.351.647a2.657 2.657 0 0 1-.434.046q-1.356 0-1.631-1.145a2.817 2.817 0 0 1-.069-.655 1.384 1.384 0 0 1 .072-.456 1.21 1.21 0 0 1 .228-.394 1.526 1.526 0 0 1 .193-.184q.34-.278 1.039-.632a13.54 13.54 0 0 1 .068-.034 22.591 22.591 0 0 1 1.908-.954q1.061-.474 2.311-.926a47.159 47.159 0 0 1 1.681-.57q3.6-1.15 8-1.95 4-.8 7.9-1.1 3.9-.3 7.6-.2l.3-.6a1.908 1.908 0 0 1 .286-.5q.384-.473 1.037-.498a1.933 1.933 0 0 1 .077-.002q1.172 0 1.672.977a2.915 2.915 0 0 1 .228.623 31.931 31.931 0 0 1 2.321.183q1.184.135 2.493.358a55.589 55.589 0 0 1 .886.159q1.411.265 1.578 1.463a2.451 2.451 0 0 1 .022.337q0 1.5-1.5 1.5-.7 0-2.75-.4a21.501 21.501 0 0 0-2.7-.344 26.545 26.545 0 0 0-1.75-.056q-2.2 4.3-8.7 15.3a283.353 283.353 0 0 0-.919 1.566q-.359.617-.68 1.175a147.754 147.754 0 0 0-.601 1.059 54.19 54.19 0 0 0-.572 1.041q-.25.469-.457.883a23.651 23.651 0 0 0-.371.776 38.322 38.322 0 0 0-1.821 4.086 31.056 31.056 0 0 0-.879 2.714 2.27 2.27 0 0 1-.174.455q-.137.262-.332.418a1.079 1.079 0 0 1-.694.227q-2 0-2-1.8 0-1.2 1.4-4.9-4.5 2.9-10.25 5.25t-11.65 3.75a54.094 54.094 0 0 1-6.043 1.092 41.668 41.668 0 0 1-4.957.308q-8.2 0-14.5-3.3-6.3-3.3-9.9-9.35-3.6-6.05-3.6-14.05a36.853 36.853 0 0 1 1.395-10.275 32.727 32.727 0 0 1 2.005-5.225 40.54 40.54 0 0 1 6.964-10.015 48.609 48.609 0 0 1 2.836-2.785q18.2-16.5 43.3-16.5 5.3 0 10.15 1.85a20.954 20.954 0 0 1 5.142 2.796 18.282 18.282 0 0 1 2.808 2.604q3.1 3.55 3.1 8.55a11.176 11.176 0 0 1-.662 3.902 10.049 10.049 0 0 1-1.838 3.098q-.501.668-1.526 1.65a33.559 33.559 0 0 1-.424.4q-1.35 1.25-2.35 1.25a2.149 2.149 0 0 1-.9-.206q-.296-.135-.591-.358a4.045 4.045 0 0 1-.109-.086q-.486-.394-.677-.807a1.282 1.282 0 0 1-.123-.543.904.904 0 0 1 .082-.361q.158-.362.618-.789l2.1-1.95q2.7-2.7 2.7-6.1a9.652 9.652 0 0 0-.669-3.643 8.918 8.918 0 0 0-2.181-3.157 16.569 16.569 0 0 0-4.348-2.934 21.553 21.553 0 0 0-2.902-1.116 31.323 31.323 0 0 0-8.671-1.344 35.224 35.224 0 0 0-.629-.006q-11 0-21.45 4.65t-18.45 12.65q-5.3 5.3-8.15 11.55-2.85 6.25-2.85 13.95a28.85 28.85 0 0 0 .358 4.68q.42 2.55 1.33 4.661a16.238 16.238 0 0 0 .662 1.359q2.35 4.3 6.05 7 3.8 2.7 8.3 3.95a34.855 34.855 0 0 0 5.202 1.044 28.706 28.706 0 0 0 3.398.206 40.289 40.289 0 0 0 5.929-.458 50.983 50.983 0 0 0 4.321-.842q5.45-1.3 10.7-3.55a69.576 69.576 0 0 0 6.008-2.909 56.864 56.864 0 0 0 3.442-2.041q1.778-1.186 2.922-2.079a26.499 26.499 0 0 0 .028-.021q.911-.713 1.414-1.175a7.704 7.704 0 0 0 .236-.225Z"/>
    <path d="M91.304 68.601a9.789 9.789 0 0 0 2.897.408 24.989 24.989 0 0 0 4.826-.49 33.169 33.169 0 0 0 4.974-1.41q5.2-1.9 9.6-5.3 4.1-3.1 6-4.85 1.9-1.75 3.6-3.35 1.453-1.453 1.85-2.431a1.797 1.797 0 0 0 .15-.669q0-.6-.5-.9a2.346 2.346 0 0 0-.317-.16 1.789 1.789 0 0 0-.683-.14 1.397 1.397 0 0 0-.308.036q-.372.084-.792.364-2.1 1.9-3.9 3.6-1.8 1.7-5.4 4.5a82.133 82.133 0 0 1-.241.19q-3.687 2.902-6.72 4.598a25.041 25.041 0 0 1-3.039 1.462q-4.2 1.65-8.9 1.65-4.577 0-5.542-4.109a10.931 10.931 0 0 1-.258-2.491 13.747 13.747 0 0 1 .044-1.075q.143-1.828.756-4.125a35.644 35.644 0 0 1 .419-1.452q.635-2.03 1.381-3.448.7.2 1.55.35a8.115 8.115 0 0 0 .182.03q.784.12 1.768.12 3.79 0 7.652-1.592a28.796 28.796 0 0 0 5.148-2.808 25.838 25.838 0 0 0 2.011-1.553q4.989-4.282 4.989-9.347 0-3.755-3.121-4.572a7.831 7.831 0 0 0-1.979-.228 11.229 11.229 0 0 0-3.601.618 15.636 15.636 0 0 0-2.799 1.282 29.367 29.367 0 0 0-1.833 1.148 33.478 33.478 0 0 0-4.467 3.652q-2 1.9-3.7 3.95a40.958 40.958 0 0 0-.522.642 36.469 36.469 0 0 0-2.478 3.508q-4.8 7.6-4.8 14.8 0 4.2 2.4 7.1a7.643 7.643 0 0 0 3.703 2.492Zm2.797-22.292q3.2 0 6.1-1 2.9-1 5.5-2.9a26.647 26.647 0 0 0 2.4-1.988q2.418-2.278 3.116-4.408a5.449 5.449 0 0 0 .284-1.704 1.944 1.944 0 0 0-.132-.744q-.347-.843-1.613-.943a4.539 4.539 0 0 0-.355-.013q-3.615 0-8.292 4.002a35.193 35.193 0 0 0-1.008.898 67.738 67.738 0 0 0-1.817 1.737q-.876.871-1.608 1.674a34.17 34.17 0 0 0-.825.939q-1.65 1.95-3.05 4.25.6.2 1.3.2Z"/>
    <path d="m115.401 65.909 9-18.1q5.8-11.8 5.8-13.1a2.015 2.015 0 0 1 .069-.554q.178-.621.812-.786a2.063 2.063 0 0 1 .519-.06 2.592 2.592 0 0 1 .763.103q.839.258 1.059 1.169a3.113 3.113 0 0 1 .078.728q0 .7-.9 3-.774 1.977-1.916 4.396a104.141 104.141 0 0 1-.384.804q-1.978 4.286-3.413 6.941a50.978 50.978 0 0 1-.587 1.059q3-3.5 6.1-6.6 3.1-3.1 6.3-5.9a74.819 74.819 0 0 1 3.945-3.234q6.335-4.812 10.248-5.053a6.602 6.602 0 0 1 .407-.013q2.979 0 3.422 2.391a4.992 4.992 0 0 1 .078.909 7.402 7.402 0 0 1-.24 1.653q-.653 2.732-3.084 8.078a164.819 164.819 0 0 1-1.776 3.769q-5.1 10.6-5.1 13.4a2.78 2.78 0 0 0 .034.458q.137.813.817.841a1.196 1.196 0 0 0 .049.001 1.121 1.121 0 0 0 .184-.018q.194-.032.473-.126a7.192 7.192 0 0 0 .293-.106q.65-.25 1.35-.25a2.61 2.61 0 0 1 .66.076q1.04.272 1.04 1.524 0 2-4.3 2-1.203 0-2.008-.343a2.635 2.635 0 0 1-.892-.607 3.194 3.194 0 0 1-.799-1.548 4.682 4.682 0 0 1-.101-1.002 14.143 14.143 0 0 1 .345-2.903q.643-3.023 2.478-7.264a88.987 88.987 0 0 1 2.077-4.433q4.679-9.262 4.89-11.504a2.102 2.102 0 0 0 .01-.196 2.352 2.352 0 0 0-.037-.434q-.136-.722-.783-.763a1.262 1.262 0 0 0-.08-.003q-2.2 0-7.1 3.7a103.159 103.159 0 0 0-7.288 6.067 122.076 122.076 0 0 0-3.312 3.133 86.309 86.309 0 0 0-7.361 8.25 101.256 101.256 0 0 0-2.739 3.65l-7 9.7a2.222 2.222 0 0 1-.483.531 1.771 1.771 0 0 1-1.117.369 2.892 2.892 0 0 1-.584-.054q-1.016-.21-1.016-1.246a1.641 1.641 0 0 1 .047-.373q.083-.353.31-.796a5.905 5.905 0 0 1 .043-.081 40.894 40.894 0 0 1 .286-.527q.113-.205.216-.386a19.479 19.479 0 0 1 .198-.337Z"/>
    <path d="M166.204 68.601a9.789 9.789 0 0 0 2.897.408 24.989 24.989 0 0 0 4.826-.49 33.169 33.169 0 0 0 4.974-1.41q5.2-1.9 9.6-5.3 4.1-3.1 6-4.85 1.9-1.75 3.6-3.35 1.453-1.453 1.85-2.431a1.797 1.797 0 0 0 .15-.669q0-.6-.5-.9a2.346 2.346 0 0 0-.317-.16 1.789 1.789 0 0 0-.683-.14 1.397 1.397 0 0 0-.308.036q-.372.084-.792.364-2.1 1.9-3.9 3.6-1.8 1.7-5.4 4.5a82.133 82.133 0 0 1-.241.19q-3.687 2.902-6.72 4.598a25.041 25.041 0 0 1-3.039 1.462q-4.2 1.65-8.9 1.65-4.577 0-5.542-4.109a10.931 10.931 0 0 1-.258-2.491 13.747 13.747 0 0 1 .044-1.075q.143-1.828.756-4.125a35.644 35.644 0 0 1 .419-1.452q.635-2.03 1.381-3.448.7.2 1.55.35a8.115 8.115 0 0 0 .182.03q.784.12 1.768.12 3.79 0 7.652-1.592a28.796 28.796 0 0 0 5.148-2.808 25.838 25.838 0 0 0 2.011-1.553q4.989-4.282 4.989-9.347 0-3.755-3.121-4.572a7.831 7.831 0 0 0-1.979-.228 11.229 11.229 0 0 0-3.601.618 15.636 15.636 0 0 0-2.799 1.282 29.367 29.367 0 0 0-1.833 1.148 33.478 33.478 0 0 0-4.467 3.652q-2 1.9-3.7 3.95a40.958 40.958 0 0 0-.522.642 36.469 36.469 0 0 0-2.478 3.508q-4.8 7.6-4.8 14.8 0 4.2 2.4 7.1a7.643 7.643 0 0 0 3.703 2.492Zm2.797-22.292q3.2 0 6.1-1 2.9-1 5.5-2.9a26.647 26.647 0 0 0 2.4-1.988q2.418-2.278 3.116-4.408a5.449 5.449 0 0 0 .284-1.704 1.944 1.944 0 0 0-.132-.744q-.347-.843-1.613-.943a4.539 4.539 0 0 0-.355-.013q-3.615 0-8.292 4.002a35.193 35.193 0 0 0-1.008.898 67.738 67.738 0 0 0-1.817 1.737q-.876.871-1.608 1.674a34.17 34.17 0 0 0-.825.939q-1.65 1.95-3.05 4.25.6.2 1.3.2Z"/>
    <path d="m190.101 66.209 9.1-18.4q5.8-11.8 5.8-13.1a2.015 2.015 0 0 1 .069-.554q.178-.621.812-.786a2.063 2.063 0 0 1 .519-.06 2.735 2.735 0 0 1 .752.094q.843.242 1.067 1.102a2.799 2.799 0 0 1 .081.704q0 .967-.841 3.055a28.942 28.942 0 0 1-.059.145 69.194 69.194 0 0 1-.746 1.748q-.339.77-.728 1.608a125.234 125.234 0 0 1-.826 1.744q-1.978 4.286-3.413 6.941a50.978 50.978 0 0 1-.587 1.059q3-3.5 6.1-6.6 3.1-3.1 6.3-5.9a74.819 74.819 0 0 1 3.945-3.234q6.335-4.812 10.248-5.053a6.602 6.602 0 0 1 .407-.013q2.979 0 3.422 2.391a4.992 4.992 0 0 1 .078.909 7.301 7.301 0 0 1-.074 1.088q-.212 1.399-1.033 1.872a1.959 1.959 0 0 1-.993.24 1.126 1.126 0 0 1-.852-.399q-.345-.375-.586-1.102a6.063 6.063 0 0 1-.062-.199q-.272-1.087-1.201-1.189a1.826 1.826 0 0 0-.199-.011 2.952 2.952 0 0 0-.935.19q-1.502.519-4.231 2.457a61.083 61.083 0 0 0-1.434 1.053q-5.4 4-10.85 9.5a89.327 89.327 0 0 0-4.714 5.175q-2.379 2.811-4.87 6.14a167.781 167.781 0 0 0-1.966 2.685l-5 7q-.358.447-.676.775a7.248 7.248 0 0 1-.074.075q-.29.29-.82.34a2.462 2.462 0 0 1-.23.01 2.892 2.892 0 0 1-.584-.054q-1.016-.21-1.016-1.246a2.073 2.073 0 0 1 0-.009q.002-.41.166-.819a2.854 2.854 0 0 1 .184-.372q.35-.6.55-1Z"/>
    <path d="m258.101 47.109-3.8 5.7a36.003 36.003 0 0 0-1.751 2.834q-1.609 2.923-1.955 5.18a7.839 7.839 0 0 0-.094 1.186 3.906 3.906 0 0 0 .119 1.013q.428 1.587 2.381 1.587a9.406 9.406 0 0 0 2.128-.258q.961-.223 1.992-.64a16.9 16.9 0 0 0 .48-.202q2.5-1.1 4.1-2.2 3.2-2.1 6.7-5.25t6.7-6.35q.331-.331.937-.388a2.814 2.814 0 0 1 .263-.012 2.752 2.752 0 0 1 .547.05q.845.172.94.943a1.681 1.681 0 0 1 .013.207q0 1.1-1.4 2.5a219.267 219.267 0 0 1-3.347 3.28q-1.54 1.475-2.937 2.746a120.104 120.104 0 0 1-.916.824 53.859 53.859 0 0 1-2.934 2.441q-1.626 1.253-3.166 2.209a32.492 32.492 0 0 1-1.552.839q-.874.444-1.885.904a63.833 63.833 0 0 1-1.263.557 14.636 14.636 0 0 1-3.761 1.024 19.101 19.101 0 0 1-2.639.176 6.635 6.635 0 0 1-1.969-.267q-2.164-.673-2.731-3.041a8.156 8.156 0 0 1-.2-1.892q0-1.479.273-2.576a6.195 6.195 0 0 1 .227-.724 46.466 46.466 0 0 1-4.999 4.193q-6.145 4.405-11.647 4.505a14.045 14.045 0 0 1-.254.002 8.836 8.836 0 0 1-2.256-.262q-3.544-.938-3.544-5.238a17.112 17.112 0 0 1 .49-3.965q.409-1.717 1.158-3.541a28.664 28.664 0 0 1 .102-.244q1.75-4.15 4.75-8.1 3-3.95 6.7-7.2a38.467 38.467 0 0 1 4.703-3.555 32.124 32.124 0 0 1 2.897-1.645 19.926 19.926 0 0 1 3.472-1.367 14.736 14.736 0 0 1 4.028-.583q5.052 0 6.116 3.926a9.091 9.091 0 0 1 .284 2.374 12.617 12.617 0 0 1-.068 1.367q-.149 1.36-.628 2.043a1.515 1.515 0 0 1-1.304.69 2.755 2.755 0 0 1-.699-.081q-.892-.234-1.062-1.152a2.578 2.578 0 0 1-.039-.467 3.112 3.112 0 0 1 .136-.895 4.08 4.08 0 0 1 .214-.555 3.77 3.77 0 0 0 .341-1.372 4.457 4.457 0 0 0 .009-.278 2.879 2.879 0 0 0-.28-1.314q-.609-1.203-2.538-1.432a8.345 8.345 0 0 0-.982-.054 10.862 10.862 0 0 0-4.102.903q-4.864 1.994-11.198 8.397a37.135 37.135 0 0 0-2.444 2.841 47.421 47.421 0 0 0-1.856 2.559q-2.1 3.1-3.45 6.25a18.02 18.02 0 0 0-.958 2.83 13.174 13.174 0 0 0-.392 3.12 3.467 3.467 0 0 0 .164 1.117q.526 1.545 2.727 1.582a6.487 6.487 0 0 0 .109.001q2.356 0 5-1.314a17.377 17.377 0 0 0 .55-.286q2.95-1.6 5.15-3.3a40.719 40.719 0 0 0 3.888-3.347q1.893-1.835 3.822-4.097a74.933 74.933 0 0 0 1.29-1.556q.626-.716 1.572-1.831a309.531 309.531 0 0 0 .228-.269q1.1-1.3 2.5-2.9a1.635 1.635 0 0 1 1.178-.5 1.948 1.948 0 0 1 .022 0 2.303 2.303 0 0 1 .633.079q.71.204.898.929a2.357 2.357 0 0 1 .069.592Z"/>
    <path d="m291.501 23.709 6.9-11.4q.7-1.1 1.5-2.45t1.8-2.95q.686-.96 1.513-1.262a2.279 2.279 0 0 1 .787-.138q.576 0 .945.234a1.194 1.194 0 0 1 .255.216 1.78 1.78 0 0 1 .247.352 1.269 1.269 0 0 1 .153.598q0 1.413-3.904 7.262a136.044 136.044 0 0 1-.496.738 2575.1 2575.1 0 0 0-1.296 1.909q-3.98 5.875-4.543 6.789a3.834 3.834 0 0 0-.061.102q1.5 0 4.5.25a140.422 140.422 0 0 1 2.404.223q1.067.107 2.241.239a260.371 260.371 0 0 1 2.455.288q1.35.09 1.485 1.234a2.278 2.278 0 0 1 .015.266q0 1.552-1.693 1.599a3.87 3.87 0 0 1-.107.001 7.051 7.051 0 0 1-.374-.012q-.786-.043-2.426-.238-2.1-.25-4.5-.45a41.701 41.701 0 0 0-1.432-.096q-1.272-.062-2.307-.022a18.117 18.117 0 0 0-.361.018l-1.5.1a605.185 605.185 0 0 0-6.865 12.382q-13.417 24.941-13.335 32.018l.1.8v.2a2.164 2.164 0 0 1-.088.643q-.219.707-.994.891a2.67 2.67 0 0 1-.618.066q-1.815 0-1.896-2.735a8.849 8.849 0 0 1-.004-.265q0-4.4 4.95-15.4t14.75-28.8a27.031 27.031 0 0 0-5.339.512 23.923 23.923 0 0 0-1.811.438q-3.113.883-3.506 2.154a1.271 1.271 0 0 0-.044.196q-.1.4-.45.75-.29.29-.82.34a2.462 2.462 0 0 1-.23.01 2.303 2.303 0 0 1-.633-.079q-.71-.204-.899-.928a2.357 2.357 0 0 1-.068-.593q0-2.49 3.761-4.155a15.615 15.615 0 0 1 .339-.145 18.386 18.386 0 0 1 3.188-.963q3.219-.69 7.69-.734a62.613 62.613 0 0 1 .622-.003Z"/>
    <path d="M299.449 66.209a10.294 10.294 0 0 0 3.352.5q4.3 0 8.2-2.4a25.075 25.075 0 0 0 2.13-1.469 28.065 28.065 0 0 0 4.87-4.831q3.1-3.9 4.9-8.55a29.012 29.012 0 0 0 .745-2.171 24.3 24.3 0 0 0 1.055-6.979q0-3.4-1.7-6.2a5.479 5.479 0 0 0-3.211-2.506 7.658 7.658 0 0 0-2.189-.294 14.271 14.271 0 0 0-4.098.606 17.346 17.346 0 0 0-4.152 1.894q-4.05 2.5-7.35 6.45t-5.3 8.55a26.216 26.216 0 0 0-1.295 3.672 19.8 19.8 0 0 0-.705 5.128 19.546 19.546 0 0 0 .007.538q.179 6.493 4.741 8.062Zm3.252-2.7a5.634 5.634 0 0 0 .207-.003q.298-.012.422-.057a.195.195 0 0 0 .07-.039q3.901-.501 7.201-2.801 3.3-2.3 5.75-5.75t3.75-7.45a26.1 26.1 0 0 0 1.235-6.158 23.657 23.657 0 0 0 .065-1.742 6.567 6.567 0 0 0-.154-1.463q-.25-1.093-.905-1.874a4.1 4.1 0 0 0-.241-.263 4.391 4.391 0 0 0-2.931-1.289 5.865 5.865 0 0 0-.369-.011 8.086 8.086 0 0 0-2.796.527q-1.094.402-2.232 1.109a16.971 16.971 0 0 0-1.122.764 28.627 28.627 0 0 0-3.907 3.508 35.818 35.818 0 0 0-2.193 2.592q-2.85 3.7-4.65 7.75-1.8 4.05-1.8 7.25 0 4.723 3.519 5.315a6.519 6.519 0 0 0 1.081.085Z"/>
    <path d="m323.801 66.209 9.1-18.4q5.8-11.8 5.8-13.1a2.015 2.015 0 0 1 .069-.554q.178-.621.812-.786a2.063 2.063 0 0 1 .519-.06 2.735 2.735 0 0 1 .752.094q.843.242 1.067 1.102a2.799 2.799 0 0 1 .081.704q0 .967-.841 3.055a28.942 28.942 0 0 1-.059.145 69.194 69.194 0 0 1-.746 1.748q-.339.77-.728 1.608a125.234 125.234 0 0 1-.826 1.744q-1.978 4.286-3.413 6.941a50.978 50.978 0 0 1-.587 1.059q3-3.5 6.1-6.6 3.1-3.1 6.3-5.9a74.819 74.819 0 0 1 3.945-3.234q6.335-4.812 10.248-5.053a6.602 6.602 0 0 1 .407-.013q2.979 0 3.422 2.391a4.992 4.992 0 0 1 .078.909 7.301 7.301 0 0 1-.074 1.088q-.212 1.399-1.033 1.872a1.959 1.959 0 0 1-.993.24 1.126 1.126 0 0 1-.852-.399q-.345-.375-.586-1.102a6.063 6.063 0 0 1-.062-.199q-.272-1.087-1.201-1.189a1.826 1.826 0 0 0-.199-.011 2.952 2.952 0 0 0-.935.19q-1.502.519-4.231 2.457a61.083 61.083 0 0 0-1.434 1.053q-5.4 4-10.85 9.5a89.327 89.327 0 0 0-4.714 5.175q-2.379 2.811-4.87 6.14a167.781 167.781 0 0 0-1.966 2.685l-5 7q-.358.447-.676.775a7.248 7.248 0 0 1-.074.075q-.29.29-.82.34a2.462 2.462 0 0 1-.23.01 2.892 2.892 0 0 1-.584-.054q-1.016-.21-1.016-1.246a2.073 2.073 0 0 1 0-.009q.002-.41.166-.819a2.854 2.854 0 0 1 .184-.372q.35-.6.55-1Z"/>
    <path d="m454.901 55.109 3-5.1q1.185-1.976 2.859-4.929a407.792 407.792 0 0 0 .041-.071 488.884 488.884 0 0 0 1.345-2.391q1.18-2.109 2.555-4.609a27.609 27.609 0 0 0-2.321.106q-1.197.102-2.567.3a65.302 65.302 0 0 0-2.912.494 122.818 122.818 0 0 0-6.963 1.552 142.626 142.626 0 0 0-2.837.748q-3.1.8-6.15 1.85a63.825 63.825 0 0 1-1.065.357q-1.585.514-2.351.647a2.657 2.657 0 0 1-.434.046q-1.356 0-1.631-1.145a2.817 2.817 0 0 1-.069-.655 1.384 1.384 0 0 1 .072-.456 1.21 1.21 0 0 1 .228-.394 1.526 1.526 0 0 1 .193-.184q.34-.278 1.039-.632a13.54 13.54 0 0 1 .068-.034 22.591 22.591 0 0 1 1.908-.954q1.061-.474 2.311-.926a47.159 47.159 0 0 1 1.681-.57q3.6-1.15 8-1.95 4-.8 7.9-1.1 3.9-.3 7.6-.2l.3-.6a1.908 1.908 0 0 1 .286-.5q.384-.473 1.037-.498a1.933 1.933 0 0 1 .077-.002q1.172 0 1.672.977a2.915 2.915 0 0 1 .228.623 31.931 31.931 0 0 1 2.321.183q1.184.135 2.493.358a55.589 55.589 0 0 1 .886.159q1.411.265 1.578 1.463a2.451 2.451 0 0 1 .022.337q0 1.5-1.5 1.5-.7 0-2.75-.4a21.501 21.501 0 0 0-2.7-.344 26.545 26.545 0 0 0-1.75-.056q-2.2 4.3-8.7 15.3a283.353 283.353 0 0 0-.919 1.566q-.359.617-.68 1.175a147.754 147.754 0 0 0-.601 1.059 54.19 54.19 0 0 0-.572 1.041q-.25.469-.457.883a23.651 23.651 0 0 0-.371.776 38.322 38.322 0 0 0-1.821 4.086 31.056 31.056 0 0 0-.879 2.714 2.27 2.27 0 0 1-.174.455q-.137.262-.332.418a1.079 1.079 0 0 1-.694.227q-2 0-2-1.8 0-1.2 1.4-4.9-4.5 2.9-10.25 5.25t-11.65 3.75a54.094 54.094 0 0 1-6.043 1.092 41.668 41.668 0 0 1-4.957.308q-8.2 0-14.5-3.3-6.3-3.3-9.9-9.35-3.6-6.05-3.6-14.05a36.853 36.853 0 0 1 1.395-10.275 32.727 32.727 0 0 1 2.005-5.225 40.54 40.54 0 0 1 6.964-10.015 48.609 48.609 0 0 1 2.836-2.785q18.2-16.5 43.3-16.5 5.3 0 10.15 1.85a20.954 20.954 0 0 1 5.142 2.796 18.282 18.282 0 0 1 2.808 2.604q3.1 3.55 3.1 8.55a11.176 11.176 0 0 1-.662 3.902 10.049 10.049 0 0 1-1.838 3.098q-.501.668-1.526 1.65a33.559 33.559 0 0 1-.424.4q-1.35 1.25-2.35 1.25a2.149 2.149 0 0 1-.9-.206q-.296-.135-.591-.358a4.045 4.045 0 0 1-.109-.086q-.486-.394-.677-.807a1.282 1.282 0 0 1-.123-.543.904.904 0 0 1 .082-.361q.158-.362.618-.789l2.1-1.95q2.7-2.7 2.7-6.1a9.652 9.652 0 0 0-.669-3.643 8.918 8.918 0 0 0-2.181-3.157 16.569 16.569 0 0 0-4.348-2.934 21.553 21.553 0 0 0-2.902-1.116 31.323 31.323 0 0 0-8.671-1.344 35.224 35.224 0 0 0-.629-.006q-11 0-21.45 4.65t-18.45 12.65q-5.3 5.3-8.15 11.55-2.85 6.25-2.85 13.95a28.85 28.85 0 0 0 .358 4.68q.42 2.55 1.33 4.661a16.238 16.238 0 0 0 .662 1.359q2.35 4.3 6.05 7 3.8 2.7 8.3 3.95a34.855 34.855 0 0 0 5.202 1.044 28.706 28.706 0 0 0 3.398.206 40.289 40.289 0 0 0 5.929-.458 50.983 50.983 0 0 0 4.321-.842q5.45-1.3 10.7-3.55a69.576 69.576 0 0 0 6.008-2.909 56.864 56.864 0 0 0 3.442-2.041q1.778-1.186 2.922-2.079a26.499 26.499 0 0 0 .028-.021q.911-.713 1.414-1.175a7.704 7.704 0 0 0 .236-.225Z"/>
    <path d="M482.204 68.601a9.789 9.789 0 0 0 2.897.408 24.989 24.989 0 0 0 4.826-.49 33.169 33.169 0 0 0 4.974-1.41q5.2-1.9 9.6-5.3 4.1-3.1 6-4.85 1.9-1.75 3.6-3.35 1.453-1.453 1.85-2.431a1.797 1.797 0 0 0 .15-.669q0-.6-.5-.9a2.346 2.346 0 0 0-.317-.16 1.789 1.789 0 0 0-.683-.14 1.397 1.397 0 0 0-.308.036q-.372.084-.792.364-2.1 1.9-3.9 3.6-1.8 1.7-5.4 4.5a82.133 82.133 0 0 1-.241.19q-3.687 2.902-6.72 4.598a25.041 25.041 0 0 1-3.039 1.462q-4.2 1.65-8.9 1.65-4.577 0-5.542-4.109a10.931 10.931 0 0 1-.258-2.491 13.747 13.747 0 0 1 .044-1.075q.143-1.828.756-4.125a35.644 35.644 0 0 1 .419-1.452q.635-2.03 1.381-3.448.7.2 1.55.35a8.115 8.115 0 0 0 .182.03q.784.12 1.768.12 3.79 0 7.652-1.592a28.796 28.796 0 0 0 5.148-2.808 25.838 25.838 0 0 0 2.011-1.553q4.989-4.282 4.989-9.347 0-3.755-3.121-4.572a7.831 7.831 0 0 0-1.979-.228 11.229 11.229 0 0 0-3.601.618 15.636 15.636 0 0 0-2.799 1.282 29.367 29.367 0 0 0-1.833 1.148 33.478 33.478 0 0 0-4.467 3.652q-2 1.9-3.7 3.95a40.958 40.958 0 0 0-.522.642 36.469 36.469 0 0 0-2.478 3.508q-4.8 7.6-4.8 14.8 0 4.2 2.4 7.1a7.643 7.643 0 0 0 3.703 2.492Zm2.797-22.292q3.2 0 6.1-1 2.9-1 5.5-2.9a26.647 26.647 0 0 0 2.4-1.988q2.418-2.278 3.116-4.408a5.449 5.449 0 0 0 .284-1.704 1.944 1.944 0 0 0-.132-.744q-.347-.843-1.613-.943a4.539 4.539 0 0 0-.355-.013q-3.615 0-8.292 4.002a35.193 35.193 0 0 0-1.008.898 67.738 67.738 0 0 0-1.817 1.737q-.876.871-1.608 1.674a34.17 34.17 0 0 0-.825.939q-1.65 1.95-3.05 4.25.6.2 1.3.2Z"/>
    <path d="m506.301 65.909 9-18.1q5.8-11.8 5.8-13.1a2.015 2.015 0 0 1 .069-.554q.178-.621.812-.786a2.063 2.063 0 0 1 .519-.06 2.592 2.592 0 0 1 .763.103q.839.258 1.059 1.169a3.113 3.113 0 0 1 .078.728q0 .7-.9 3-.774 1.977-1.916 4.396a104.141 104.141 0 0 1-.384.804q-1.978 4.286-3.413 6.941a50.978 50.978 0 0 1-.587 1.059q3-3.5 6.1-6.6 3.1-3.1 6.3-5.9a74.819 74.819 0 0 1 3.945-3.234q6.335-4.812 10.248-5.053a6.602 6.602 0 0 1 .407-.013q2.979 0 3.422 2.391a4.992 4.992 0 0 1 .078.909 7.402 7.402 0 0 1-.24 1.653q-.653 2.732-3.084 8.078a164.819 164.819 0 0 1-1.776 3.769q-5.1 10.6-5.1 13.4a2.78 2.78 0 0 0 .034.458q.137.813.817.841a1.196 1.196 0 0 0 .049.001 1.121 1.121 0 0 0 .184-.018q.194-.032.473-.126a7.192 7.192 0 0 0 .293-.106q.65-.25 1.35-.25a2.61 2.61 0 0 1 .66.076q1.04.272 1.04 1.524 0 2-4.3 2-1.203 0-2.008-.343a2.635 2.635 0 0 1-.892-.607 3.194 3.194 0 0 1-.799-1.548 4.682 4.682 0 0 1-.101-1.002 14.143 14.143 0 0 1 .345-2.903q.643-3.023 2.478-7.264a88.987 88.987 0 0 1 2.077-4.433q4.679-9.262 4.89-11.504a2.102 2.102 0 0 0 .01-.196 2.352 2.352 0 0 0-.037-.434q-.136-.722-.783-.763a1.262 1.262 0 0 0-.08-.003q-2.2 0-7.1 3.7a103.159 103.159 0 0 0-7.288 6.067 122.076 122.076 0 0 0-3.312 3.133 86.309 86.309 0 0 0-7.361 8.25 101.256 101.256 0 0 0-2.739 3.65l-7 9.7a2.222 2.222 0 0 1-.483.531 1.771 1.771 0 0 1-1.117.369 2.892 2.892 0 0 1-.584-.054q-1.016-.21-1.016-1.246a1.641 1.641 0 0 1 .047-.373q.083-.353.31-.796a5.905 5.905 0 0 1 .043-.081 40.894 40.894 0 0 1 .286-.527q.113-.205.216-.386a19.479 19.479 0 0 1 .198-.337Z"/>
    <path d="M553.067 68.224a11.27 11.27 0 0 0 1.434.085 12.538 12.538 0 0 0 .719-.021q1.746-.1 3.613-.684a21.36 21.36 0 0 0 3.168-1.295q4-2 7.3-4.4a56.458 56.458 0 0 0 1.875-1.496 72.392 72.392 0 0 0 2.525-2.204q2.3-2.1 5-4.8 1.4-1.4 1.4-2.5a1.681 1.681 0 0 0-.013-.207q-.095-.771-.94-.943a2.752 2.752 0 0 0-.547-.05 2.814 2.814 0 0 0-.263.012q-.606.057-.937.388-1.25 1.188-2.832 2.648a452.587 452.587 0 0 1-2.018 1.852q-2.85 2.6-6.05 5.05a48.598 48.598 0 0 1-2.436 1.751 39.078 39.078 0 0 1-3.864 2.299 19.192 19.192 0 0 1-1.124.536q-1.13.493-2.174.758a9.377 9.377 0 0 1-2.302.306 8.179 8.179 0 0 1-.078 0q-.865-.009-1.291-.202a.818.818 0 0 1-.281-.198q-.35-.4-.35-1.2a6.94 6.94 0 0 1 .044-.754q.187-1.702 1.156-4.446 1.1-3.4 2.1-4.9.312-.469 1.174-1.578a123.293 123.293 0 0 1 .526-.672q1.3-1.65 2.7-3.55 1.4-1.9 2.2-3a180.981 180.981 0 0 0 .996-1.511 156.898 156.898 0 0 0 2.704-4.289 35.694 35.694 0 0 0 .41-.693q1.29-2.236 1.29-3.107a2.306 2.306 0 0 0-.037-.424q-.22-1.176-1.763-1.176a1.457 1.457 0 0 0-.138.007q-.98.093-2.412 1.488a16.908 16.908 0 0 0-.9.955q-2.15 2.45-4.45 6.25-2.3 3.8-4.35 8t-3.35 7.85a39.419 39.419 0 0 0-.258.748q-1.042 3.122-1.042 5.002a7.294 7.294 0 0 0 .008.345q.033.697.202 1.275a3.487 3.487 0 0 0 1.04 1.68 3.094 3.094 0 0 0 .193.156q.885.661 2.423.859Zm22.134-44.615-2.2 3.1q-.1.4-.45.75-.29.29-.82.34a2.462 2.462 0 0 1-.23.01 2.447 2.447 0 0 1-.673-.084q-1.027-.294-1.027-1.616 0-.5.7-1.85t1.6-2.75q.9-1.4 1.4-1.9a27.395 27.395 0 0 1 .801-.861q1.136-1.164 1.849-1.539a5.114 5.114 0 0 1 .691-.305q.384-.134.74-.176a2.72 2.72 0 0 1 .319-.019q2.1 0 2.1 1.9a1.468 1.468 0 0 1-.101.511q-.191.516-.749 1.139a12.235 12.235 0 0 1-1.746 1.599 13.628 13.628 0 0 1-.204.151q-1.511.944-1.952 1.532a1.502 1.502 0 0 0-.048.068Z"/>
    <path d="M581.504 68.601a9.789 9.789 0 0 0 2.897.408 24.989 24.989 0 0 0 4.826-.49 33.169 33.169 0 0 0 4.974-1.41q5.2-1.9 9.6-5.3 4.1-3.1 6-4.85 1.9-1.75 3.6-3.35 1.453-1.453 1.85-2.431a1.797 1.797 0 0 0 .15-.669q0-.6-.5-.9a2.346 2.346 0 0 0-.317-.16 1.789 1.789 0 0 0-.683-.14 1.397 1.397 0 0 0-.308.036q-.372.084-.792.364-2.1 1.9-3.9 3.6-1.8 1.7-5.4 4.5a82.133 82.133 0 0 1-.241.19q-3.687 2.902-6.72 4.598a25.041 25.041 0 0 1-3.039 1.462q-4.2 1.65-8.9 1.65-4.577 0-5.542-4.109a10.931 10.931 0 0 1-.258-2.491 13.747 13.747 0 0 1 .044-1.075q.143-1.828.756-4.125a35.644 35.644 0 0 1 .419-1.452q.635-2.03 1.381-3.448.7.2 1.55.35a8.115 8.115 0 0 0 .182.03q.784.12 1.768.12 3.79 0 7.652-1.592a28.796 28.796 0 0 0 5.148-2.808 25.838 25.838 0 0 0 2.011-1.553q4.989-4.282 4.989-9.347 0-3.755-3.121-4.572a7.831 7.831 0 0 0-1.979-.228 11.229 11.229 0 0 0-3.601.618 15.636 15.636 0 0 0-2.799 1.282 29.367 29.367 0 0 0-1.833 1.148 33.478 33.478 0 0 0-4.467 3.652q-2 1.9-3.7 3.95a40.958 40.958 0 0 0-.522.642 36.469 36.469 0 0 0-2.478 3.508q-4.8 7.6-4.8 14.8 0 4.2 2.4 7.1a7.643 7.643 0 0 0 3.703 2.492Zm2.797-22.292q3.2 0 6.1-1 2.9-1 5.5-2.9a26.647 26.647 0 0 0 2.4-1.988q2.418-2.278 3.116-4.408a5.449 5.449 0 0 0 .284-1.704 1.944 1.944 0 0 0-.132-.744q-.347-.843-1.613-.943a4.539 4.539 0 0 0-.355-.013q-3.615 0-8.292 4.002a35.193 35.193 0 0 0-1.008.898 67.738 67.738 0 0 0-1.817 1.737q-.876.871-1.608 1.674a34.17 34.17 0 0 0-.825.939q-1.65 1.95-3.05 4.25.6.2 1.3.2Z"/>
  </g>
</svg>